<svg xmlns="http://www.w3.org/2000/svg" width="100" height="100" viewBox="0 0 100 100">
  <g id="ico_AI1" transform="translate(-454.805 -26.378)">
    <rect id="사각형_5698" data-name="사각형 5698" width="100" height="100" transform="translate(454.805 26.378)" fill="none"/>
    <g id="그룹_155" data-name="그룹 155" transform="translate(11 12)">
      <g id="그룹_153" data-name="그룹 153">
        <path id="패스_247" data-name="패스 247" d="M515.961,62.991h-10.78c-.391,0-.707-.426-.707-.951s.316-.951.707-.951h10.78c.392,0,.708.425.708.951S516.353,62.991,515.961,62.991Z" fill="#707070"/>
      </g>
      <g id="그룹_154" data-name="그룹 154">
        <path id="패스_248" data-name="패스 248" d="M500.05,62.991h-4.335c-.391,0-.708-.426-.708-.951s.317-.951.708-.951h4.335c.391,0,.708.425.708.951S500.441,62.991,500.05,62.991Z" fill="#707070"/>
      </g>
      <path id="패스_249" data-name="패스 249" d="M517.524,96.964h-49.4a3.113,3.113,0,0,1-3.11-3.109V62.991h-4.55a3.109,3.109,0,0,1-2.4-5.079l.027-.033.03-.031,32.372-33.213a3.049,3.049,0,0,1,2.324-1.009A3.1,3.1,0,0,1,495.2,24.68L527.486,57.8a1.45,1.45,0,0,1,.111.126,3.108,3.108,0,0,1-2.414,5.066h-4.551V93.855A3.112,3.112,0,0,1,517.524,96.964ZM459.587,59.208a1.109,1.109,0,0,0,.88,1.783h4.858a1.694,1.694,0,0,1,1.692,1.693V93.855a1.111,1.111,0,0,0,1.11,1.109h49.4a1.11,1.11,0,0,0,1.108-1.109V62.684a1.7,1.7,0,0,1,1.694-1.693h4.857a1.108,1.108,0,0,0,.858-1.809L493.71,26.018l-.027-.033a1.118,1.118,0,0,0-.867-.359,1.065,1.065,0,0,0-.8.31l-.028.035-.031.032Z" fill="#707070"/>
    </g>
    <rect id="사각형_5696" data-name="사각형 5696" width="21.496" height="21.496" rx="3.177" transform="translate(494.077 80.566)" fill="#d2e9ed"/>
    <path id="패스_250" data-name="패스 250" d="M501.679,91.062H486.537a4.182,4.182,0,0,1-4.177-4.177V71.743a4.182,4.182,0,0,1,4.177-4.177h15.142a4.182,4.182,0,0,1,4.177,4.177v.476a1,1,0,0,1-2,0v-.476a2.179,2.179,0,0,0-2.177-2.177H486.537a2.179,2.179,0,0,0-2.177,2.177V86.885a2.179,2.179,0,0,0,2.177,2.177h15.142a2.179,2.179,0,0,0,2.177-2.177V78.912a1,1,0,0,1,2,0v7.973A4.182,4.182,0,0,1,501.679,91.062Z" transform="translate(11 12)" fill="#707070"/>
    <g id="그룹_156" data-name="그룹 156" transform="translate(11 12)">
      <path id="패스_251" data-name="패스 251" d="M507.474,81.476a1,1,0,0,1-.707-.293l-1.911-1.911-1.909,1.91a1,1,0,1,1-1.415-1.414l2.116-2.117a1.713,1.713,0,0,1,2.414,0l2.119,2.118a1,1,0,0,1-.707,1.707Z" fill="#707070"/>
    </g>
  </g>
</svg>
