<svg xmlns="http://www.w3.org/2000/svg" width="100" height="100" viewBox="0 0 100 100">
  <g id="ico_AI2" transform="translate(-308 -1447)">
    <rect id="사각형_5697" data-name="사각형 5697" width="100" height="100" transform="translate(308 1447)" fill="none"/>
    <g id="그룹_170" data-name="그룹 170" transform="translate(-556.665 1413.97)">
      <g id="그룹_166" data-name="그룹 166" transform="translate(878.661 41.03)">
        <path id="패스_252" data-name="패스 252" d="M905.779,132.815h-1.658V120.747l-1.74.278a12.565,12.565,0,0,1-14.551-12.408v-3.569a3.425,3.425,0,0,0-3.421-3.421h-.659a5.079,5.079,0,0,1-4.3-7.78l1.4.882a3.421,3.421,0,0,0,2.9,5.24h.659a5.085,5.085,0,0,1,5.079,5.079v3.569a10.908,10.908,0,0,0,12.631,10.771l3.66-.585Z" transform="translate(-878.661 -50.065)" fill="#707070"/>
        <path id="패스_253" data-name="패스 253" d="M881.013,85.7l-1.4-.893,9.292-14.53a29.328,29.328,0,0,1,.326-4.144,33.222,33.222,0,0,1,2.963-9.74,25.879,25.879,0,0,1,8.649-10.1c4.584-3.137,10.371-4.908,17.2-5.264l.086,1.656c-11.814.615-20.039,5.473-24.448,14.437a31.478,31.478,0,0,0-3.116,13.362l.009.257Z" transform="translate(-878.824 -41.03)" fill="#707070"/>
        <path id="패스_254" data-name="패스 254" d="M942.812,123.779h-1.658V107l.308-.249a40.2,40.2,0,0,0,7.016-8.072,44.146,44.146,0,0,0,7.584-22.816c.069-1.674.065-3.32-.01-4.89A29.858,29.858,0,0,0,926.03,42.688V41.03a31.865,31.865,0,0,1,21.833,8.636,31.027,31.027,0,0,1,9.845,21.23c.078,1.619.082,3.314.011,5.037A44.715,44.715,0,0,1,954.994,89.6a47,47,0,0,1-5.177,10.062,42.792,42.792,0,0,1-7,8.122Z" transform="translate(-886.764 -41.03)" fill="#707070"/>
      </g>
      <g id="그룹_169" data-name="그룹 169" transform="translate(898.579 51.867)">
        <g id="그룹_168" data-name="그룹 168">
          <g id="그룹_167" data-name="그룹 167">
            <path id="패스_255" data-name="패스 255" d="M933.753,91.751l4.292-3.484-2.209-3.422a15.753,15.753,0,0,0,2.806-5.351l4.032-.049.532-5.5-4-.831a15.751,15.751,0,0,0-1.824-5.758l2.79-2.9-3.545-4.241-3.38,2.252a15.718,15.718,0,0,0-4.529-2.483l.125-3.995-5.473-.769-.99,3.9a15.794,15.794,0,0,0-5.895,1.577l-2.728-2.862L909.366,61.2l2.066,3.414a15.742,15.742,0,0,0-3.019,5.337l-3.93-.066-.69,5.484,3.871.923a15.774,15.774,0,0,0,1.694,5.9l-2.808,2.755,3.421,4.341,3.39-2.12c1.615,1.336,1.514,1.71,3.443,2.31l.2,4.376,7.21.8L925.1,90.7a15.744,15.744,0,0,0,5.808-1.772ZM916.443,80.8a9.145,9.145,0,1,1,12.882,1.152A9.145,9.145,0,0,1,916.443,80.8Z" transform="translate(-902.879 -54.294)" fill="#f0dac2"/>
            <path id="패스_255_-_윤곽선" data-name="패스 255 - 윤곽선" d="M924.68,95.362l-8.652-.962-.211-4.516a5.335,5.335,0,0,1-2.178-1.393c-.16-.15-.333-.313-.54-.5l-3.5,2.192-4.341-5.509,2.911-2.856a16.505,16.505,0,0,1-1.45-5.055l-4.022-.959.875-6.96,4.076.069a16.476,16.476,0,0,1,2.588-4.573L908.083,60.8l5.572-4.261,2.83,2.969a16.525,16.525,0,0,1,5.047-1.349l1.027-4.053,6.946.976-.13,4.142a16.509,16.509,0,0,1,3.713,2.037L936.6,58.92l4.5,5.382L938.2,67.308a16.486,16.486,0,0,1,1.557,4.921l4.153.863-.675,6.982-4.177.051a16.493,16.493,0,0,1-2.4,4.572l2.294,3.554-5.447,4.421-2.948-2.92a16.48,16.48,0,0,1-4.969,1.514Zm-7.063-2.453,5.768.641.846-3.8.594-.061a14.858,14.858,0,0,0,5.5-1.679l.539-.288,2.752,2.725,3.138-2.547-2.13-3.3.374-.466a14.868,14.868,0,0,0,2.658-5.069l.175-.584,3.9-.047.389-4.021-3.859-.8-.068-.6a14.865,14.865,0,0,0-1.728-5.455l-.292-.534,2.7-2.8-2.592-3.1L933.017,63.3l-.472-.372a14.869,14.869,0,0,0-4.291-2.353l-.574-.2.121-3.859-4-.562-.955,3.766-.6.041a14.9,14.9,0,0,0-5.585,1.495l-.546.268-2.634-2.764-3.21,2.455,1.993,3.293-.392.456a14.856,14.856,0,0,0-2.86,5.056l-.191.579-3.8-.064-.5,4.009,3.731.889.051.6a14.884,14.884,0,0,0,1.605,5.587l.28.543-2.713,2.662,2.5,3.173,3.267-2.043.461.381c.47.389.8.7,1.07.953a4.083,4.083,0,0,0,2.091,1.2l.555.173Zm5.658-8.188a9.974,9.974,0,1,1,6.392-2.321A9.954,9.954,0,0,1,923.276,84.721Zm-.01-18.291a8.317,8.317,0,1,0,6.386,2.983A8.324,8.324,0,0,0,923.266,66.43Z" transform="translate(-902.69 -54.103)" fill="#707070"/>
          </g>
        </g>
      </g>
    </g>
  </g>
</svg>
